<svg width="16" height="16" viewBox="0 0 16 16" fill="none" xmlns="http://www.w3.org/2000/svg">
<path d="M8 0C3.5888 0 0 3.58885 0 8.00005C0 12.4112 3.5888 16 8 16C12.4112 16 16 12.4112 16 8.00005C16 3.58885 12.4112 0 8 0ZM8 14.5455C4.39079 14.5455 1.45455 11.6092 1.45455 8.00005C1.45455 4.39088 4.39079 1.45455 8 1.45455C11.6092 1.45455 14.5455 4.39088 14.5455 8.00005C14.5455 11.6092 11.6092 14.5455 8 14.5455Z" fill="#808080"/>
<path d="M7.9999 3.39396C7.4653 3.39396 7.0304 3.82916 7.0304 4.3641C7.0304 4.89854 7.4653 5.33336 7.9999 5.33336C8.53449 5.33336 8.9694 4.89854 8.9694 4.3641C8.9694 3.82916 8.53449 3.39396 7.9999 3.39396Z" fill="#808080"/>
<path d="M8.00002 6.78788C7.59837 6.78788 7.27275 7.11351 7.27275 7.51516V11.8788C7.27275 12.2804 7.59837 12.6061 8.00002 12.6061C8.40167 12.6061 8.72729 12.2804 8.72729 11.8788V7.51516C8.72729 7.11351 8.40167 6.78788 8.00002 6.78788Z" fill="#808080"/>
</svg>
