<svg width="17" height="18" viewBox="0 0 17 18" xmlns="http://www.w3.org/2000/svg">
<path d="M7.54139 2.82857H5.24064V0.514286C5.24064 0.230304 5.01168 0 4.72936 0H4.21808C3.93576 0 3.70681 0.230304 3.70681 0.514286V2.82857H1.40605C1.12373 2.82857 0.894775 3.05888 0.894775 3.34286V3.85714C0.894775 4.14113 1.12373 4.37143 1.40605 4.37143H3.70681V6.68571C3.70681 6.9697 3.93576 7.2 4.21808 7.2H4.72936C5.01168 7.2 5.24064 6.9697 5.24064 6.68571V4.37143H7.54139C7.82371 4.37143 8.05267 4.14113 8.05267 3.85714V3.34286C8.05267 3.05888 7.82371 2.82857 7.54139 2.82857Z"  />
<path d="M9.65358 4.01386L13.9041 8.2896L4.67424 17.5742L0.884537 17.995C0.377206 18.0515 -0.0514349 17.6199 0.0050089 17.1096L0.426678 13.2948L9.65358 4.01386ZM16.5331 3.37728L14.5373 1.36967C13.9148 0.743436 12.9051 0.743436 12.2825 1.36967L10.405 3.25838L14.6555 7.53412L16.5331 5.6454C17.1556 5.01884 17.1556 4.00351 16.5331 3.37728Z"/>
</svg>
