<svg width="16" height="16" viewBox="0 0 16 16" fill="none" xmlns="http://www.w3.org/2000/svg">
<path d="M7.75488 10.7256C7.29742 10.7256 6.92704 11.1069 6.92704 11.5644C6.92704 12.011 7.28651 12.4031 7.75488 12.4031C8.22326 12.4031 8.59363 12.011 8.59363 11.5644C8.59363 11.1069 8.21241 10.7256 7.75488 10.7256Z" fill="#808080"/>
<path d="M7.89661 4.37508C6.42608 4.37508 5.75073 5.24649 5.75073 5.8347C5.75073 6.25955 6.11017 6.45561 6.4043 6.45561C6.99248 6.45561 6.75286 5.61686 7.86392 5.61686C8.40858 5.61686 8.84429 5.85652 8.84429 6.35758C8.84429 6.94583 8.23429 7.28348 7.87483 7.58848C7.55895 7.86079 7.14501 8.30742 7.14501 9.2442C7.14501 9.8106 7.29748 9.97401 7.74411 9.97401C8.27786 9.97401 8.38676 9.73439 8.38676 9.52742C8.38676 8.96098 8.3977 8.6342 8.99679 8.16582C9.29089 7.93708 10.2168 7.19636 10.2168 6.17242C10.2168 5.14849 9.29089 4.37508 7.89661 4.37508Z" fill="#808080"/>
<path d="M8 0C12.4214 0 16 3.57803 16 8V15.375C16 15.7202 15.7202 16 15.375 16H8C3.57866 16 0 12.422 0 8C0 3.57863 3.57803 0 8 0ZM8 14.75H14.75V8C14.75 4.26947 11.731 1.25 8 1.25C4.26947 1.25 1.25 4.26897 1.25 8C1.25 11.7305 4.26897 14.75 8 14.75Z" fill="#808080"/>
</svg>
