<svg width="14" height="15" viewBox="0 0 14 15"  xmlns="http://www.w3.org/2000/svg">
<path d="M6.7213 0.102439L0 5.86525V14.085C0 14.246 0.0614534 14.4005 0.170841 14.5143C0.280229 14.6282 0.42859 14.6922 0.583288 14.6922L4.66849 14.6812C4.82269 14.6804 4.9703 14.6161 5.07906 14.5023C5.18781 14.3885 5.24887 14.2345 5.24887 14.074V10.4417C5.24887 10.2807 5.31032 10.1262 5.41971 10.0124C5.5291 9.89848 5.67746 9.83451 5.83215 9.83451H8.16531C8.32001 9.83451 8.46837 9.89848 8.57775 10.0124C8.68714 10.1262 8.7486 10.2807 8.7486 10.4417V14.0713C8.74836 14.1512 8.76327 14.2304 8.79247 14.3043C8.82168 14.3782 8.86461 14.4453 8.91879 14.5019C8.97298 14.5585 9.03736 14.6034 9.10825 14.634C9.17913 14.6647 9.25513 14.6804 9.33189 14.6804L13.4156 14.6922C13.5703 14.6922 13.7187 14.6282 13.8281 14.5143C13.9375 14.4005 13.9989 14.246 13.9989 14.085V5.86108L7.27907 0.102439C7.20007 0.036149 7.10166 0 7.00019 0C6.89872 0 6.80031 0.036149 6.7213 0.102439Z" />
</svg>
