<svg width="15" height="15" viewBox="0 0 15 15" fill="none" xmlns="http://www.w3.org/2000/svg">
<path d="M14.0781 2.45166L8.07812 0.107678C7.89536 0.0365911 7.69943 0 7.50156 0C7.30369 0 7.10777 0.0365911 6.925 0.107678L0.925 2.45166C0.365625 2.66847 0 3.18122 0 3.74964C0 9.56563 3.57812 13.5856 6.92188 14.8923C7.29063 15.0359 7.70625 15.0359 8.075 14.8923C10.7531 13.8463 15 10.2337 15 3.74964C15 3.18122 14.6344 2.66847 14.0781 2.45166ZM7.50156 13.5V1.5L13.5 4C13.3969 8.43598 10.4297 12.1346 7.50156 13.5Z" fill="#808080"/>
</svg>
