<svg width="14" height="17" viewBox="0 0 14 17" fill="none" xmlns="http://www.w3.org/2000/svg">
<path d="M7 0C9.32218 0 11.2048 1.94709 11.2048 4.34884C11.2048 6.75058 9.32218 8.69767 7 8.69767C4.67782 8.69767 2.79522 6.75058 2.79522 4.34884C2.79522 1.94709 4.67782 0 7 0ZM7 17C4.19522 17 1.68191 15.6855 0 13.6297C0.898293 11.8802 2.65666 10.6744 4.70648 10.6744C4.82116 10.6744 4.93584 10.6942 5.04573 10.7288C5.66689 10.9363 6.31672 11.0698 7 11.0698C7.68328 11.0698 8.33788 10.9363 8.95427 10.7288C9.06416 10.6942 9.17884 10.6744 9.29352 10.6744C11.3433 10.6744 13.1017 11.8802 14 13.6297C12.3181 15.6855 9.80478 17 7 17Z" fill="white"/>
</svg>
