<svg width="15" height="16" viewBox="0 0 15 16" fill="none" xmlns="http://www.w3.org/2000/svg">
<path d="M6.42857 2.76571V15.4286C6.42857 15.5801 6.37213 15.7255 6.27166 15.8326C6.1712 15.9398 6.03494 16 5.89286 16H4.82143C4.67935 16 4.54309 15.9398 4.44262 15.8326C4.34216 15.7255 4.28572 15.5801 4.28572 15.4286L4.28571 2.76571C4.28571 2.61416 4.34216 2.46882 4.44262 2.36165C4.54309 2.25449 4.67935 2.19429 4.82143 2.19429H5.89286C6.03494 2.19429 6.1712 2.25449 6.27166 2.36165C6.37213 2.46882 6.42857 2.61416 6.42857 2.76571ZM12.8571 15.4286V0.571429C12.8571 0.419876 12.9136 0.274531 13.014 0.167368C13.1145 0.060204 13.2508 5.92748e-08 13.3929 5.23348e-08L14.4643 0C14.6064 -6.93997e-09 14.7426 0.0602039 14.8431 0.167368C14.9436 0.274531 15 0.419876 15 0.571428V15.4286C15 15.5801 14.9436 15.7255 14.8431 15.8326C14.7426 15.9398 14.6064 16 14.4643 16H13.3929C13.2508 16 13.1145 15.9398 13.0141 15.8326C12.9136 15.7255 12.8571 15.5801 12.8571 15.4286ZM4.9721e-07 15.5418L1.30714e-07 6.1725C-4.39022e-05 6.11231 0.0110373 6.05271 0.0326099 5.99709C0.0541825 5.94148 0.0858232 5.89095 0.125722 5.84839C0.16562 5.80583 0.212994 5.77208 0.265132 5.74907C0.317271 5.72606 0.373151 5.71424 0.429576 5.71429H1.71328C1.76971 5.71424 1.82559 5.72606 1.87773 5.74907C1.92986 5.77208 1.97724 5.80583 2.01714 5.84839C2.05703 5.89095 2.08868 5.94148 2.11025 5.99709C2.13182 6.05271 2.1429 6.11231 2.14286 6.1725L2.14286 15.5418C2.1429 15.602 2.13182 15.6616 2.11025 15.7172C2.08868 15.7728 2.05703 15.8233 2.01714 15.8659C1.97724 15.9085 1.92986 15.9422 1.87773 15.9652C1.82559 15.9882 1.76971 16 1.71328 16H0.429577C0.373151 16 0.317271 15.9882 0.265133 15.9652C0.212994 15.9422 0.165621 15.9085 0.125722 15.8659C0.0858236 15.8233 0.0541829 15.7728 0.0326103 15.7172C0.0110377 15.6616 -4.3531e-05 15.602 4.9721e-07 15.5418ZM8.57143 15.5418L8.57143 6.1725C8.57138 6.11231 8.58247 6.05271 8.60404 5.99709C8.62561 5.94148 8.65725 5.89095 8.69715 5.84839C8.73705 5.80583 8.78442 5.77208 8.83656 5.74907C8.8887 5.72606 8.94458 5.71424 9.001 5.71429H10.2847C10.3411 5.71424 10.397 5.72606 10.4492 5.74907C10.5013 5.77208 10.5487 5.80583 10.5886 5.84839C10.6285 5.89095 10.6601 5.94148 10.6817 5.99709C10.7032 6.05271 10.7143 6.11231 10.7143 6.1725L10.7143 15.5418C10.7143 15.602 10.7032 15.6616 10.6817 15.7172C10.6601 15.7728 10.6285 15.8233 10.5886 15.8659C10.5487 15.9085 10.5013 15.9422 10.4492 15.9652C10.397 15.9882 10.3411 16 10.2847 16H9.001C8.94458 16 8.8887 15.9882 8.83656 15.9652C8.78442 15.9422 8.73705 15.9085 8.69715 15.8659C8.65725 15.8233 8.62561 15.7728 8.60404 15.7172C8.58247 15.6616 8.57139 15.602 8.57143 15.5418Z" fill="#808080"/>
</svg>
