<svg width="16" height="17" viewBox="0 0 16 17" fill="none" xmlns="http://www.w3.org/2000/svg">
<path d="M13.8733 9.61398L13.811 9.95751L14.112 10.1343L15.4843 10.9404C15.1395 12.0393 14.5644 13.0391 13.8195 13.8734L12.4578 13.0737L12.1482 12.8918L11.8769 13.1272C11.318 13.6121 10.6772 13.9875 9.98504 14.2378L9.65507 14.3571V14.708V16.3212C8.59354 16.5548 7.46092 16.5644 6.34493 16.321V14.708V14.3571L6.01496 14.2378C5.32278 13.9875 4.68197 13.6121 4.12309 13.1272L3.85184 12.8918L3.54217 13.0737L2.18072 13.8733C1.43487 13.033 0.860148 12.0379 0.515662 10.9403L1.888 10.1343L2.18904 9.95751L2.12675 9.61398C1.99303 8.8765 1.99303 8.1235 2.12675 7.38601L2.18904 7.04249L1.888 6.86568L0.515661 6.05965C0.860504 4.96072 1.43564 3.96091 2.18051 3.12657L3.54217 3.92633L3.85184 4.10821L4.12309 3.87284C4.68197 3.38789 5.32278 3.0125 6.01496 2.76221L6.34493 2.64289V2.29201V0.678828C7.40646 0.44516 8.53908 0.435615 9.65507 0.678987V2.29201V2.64289L9.98504 2.76221C10.6772 3.0125 11.318 3.38789 11.8769 3.87284L12.1482 4.10821L12.4578 3.92633L13.8195 3.12657C14.5644 3.96091 15.1395 4.96072 15.4843 6.05965L14.112 6.86568L13.811 7.04249L13.8733 7.38601C14.007 8.1235 14.007 8.8765 13.8733 9.61398ZM4.81172 8.5C4.81172 10.2757 6.23228 11.7396 8.00556 11.7396C9.77883 11.7396 11.1994 10.2757 11.1994 8.5C11.1994 6.72362 9.77261 5.26035 8.00556 5.26035C6.2385 5.26035 4.81172 6.72362 4.81172 8.5Z" fill="#808080" stroke="white"/>
</svg>
