<svg width="7" height="7" viewBox="0 0 7 7" fill="none" xmlns="http://www.w3.org/2000/svg">
<path d="M6.90864 2.42605L5.1586 4.28522C4.97413 4.4812 4.66667 4.3359 4.66667 4.04667V3.0628C2.90968 3.07606 2.16847 3.54286 2.66419 5.40552C2.71867 5.61023 2.50808 5.76874 2.3603 5.64245C1.88674 5.23776 1.45833 4.4637 1.45833 3.68237C1.45833 1.71448 2.88749 1.32397 4.66667 1.31287V0.328292C4.66667 0.0388039 4.97434 -0.106036 5.1586 0.0897452L6.90864 1.94896C7.03041 2.07833 7.0305 2.29656 6.90864 2.42605ZM4.66667 5.18339V6.125H0.777778V1.75H1.39655C1.41619 1.74999 1.43562 1.74551 1.45368 1.73683C1.47174 1.72816 1.48806 1.71546 1.50165 1.69951C1.68337 1.48667 1.89341 1.3182 2.12161 1.18441C2.25687 1.1051 2.20675 0.875003 2.05422 0.875003H0.583333C0.261163 0.875003 0 1.16881 0 1.53125V6.34375C0 6.70619 0.261163 7 0.583333 7H4.86111C5.18328 7 5.44444 6.70619 5.44444 6.34375V5.12961C5.44444 5.01629 5.34483 4.9373 5.24987 4.97509C5.11673 5.02806 4.97415 5.0439 4.83437 5.02126C4.74602 5.00696 4.66667 5.08297 4.66667 5.18339Z" fill="white" fill-opacity="0.9"/>
</svg>
