<svg width="19" height="19" viewBox="0 0 19 19" fill="none" xmlns="http://www.w3.org/2000/svg">
<path d="M18.4051 9.22268H10.8846C10.5569 9.22268 10.2909 8.95668 10.2909 8.62893C10.2909 8.30118 10.5569 8.03518 10.8846 8.03518H18.4051C18.7329 8.03518 18.9988 8.30118 18.9988 8.62893C18.9988 8.95668 18.7329 9.22268 18.4051 9.22268Z" fill="#808080"/>
<path d="M15.4371 12.1914C15.285 12.1914 15.1331 12.1336 15.0175 12.0173C14.7855 11.7852 14.7855 11.4092 15.0175 11.1773L17.5666 8.62819L15.0175 6.07895C14.7855 5.84702 14.7855 5.471 15.0175 5.23906C15.2495 5.00698 15.6255 5.00698 15.8575 5.23906L18.8261 8.20781C19.058 8.43975 19.058 8.81577 18.8261 9.0477L15.8575 12.0165C15.7411 12.1336 15.5891 12.1914 15.4371 12.1914Z" fill="#808080"/>
<path d="M6.33307 19C6.16363 19 6.00287 18.9762 5.84227 18.9264L1.07815 17.3391C0.429926 17.1126 0 16.5086 0 15.8334V1.58338C0 0.710152 0.710117 0 1.5833 0C1.75261 0 1.91336 0.0237732 2.07411 0.0736389L6.83809 1.66093C7.48645 1.88736 7.91623 2.4914 7.91623 3.16662V17.4166C7.91623 18.2898 7.20626 19 6.33307 19ZM1.5833 1.1875C1.36559 1.1875 1.18744 1.36565 1.18744 1.58338V15.8334C1.18744 16.002 1.30065 16.1587 1.46213 16.2149L6.20392 17.7951C6.23799 17.8061 6.28234 17.8125 6.33307 17.8125C6.55079 17.8125 6.72879 17.6343 6.72879 17.4166V3.16662C6.72879 2.99803 6.61558 2.84133 6.45411 2.78509L1.71231 1.2049C1.67825 1.19388 1.63389 1.1875 1.5833 1.1875Z" fill="#808080"/>
<path d="M12.0723 6.33338C11.7445 6.33338 11.4785 6.06738 11.4785 5.73963V2.17713C11.4785 1.63165 11.0345 1.1875 10.4891 1.1875L1.5833 1.1875C1.25557 1.1875 0.989558 0.921501 0.989558 0.59375C0.989558 0.265999 1.25557 0 1.5833 0H10.4891C11.69 0 12.666 0.976151 12.666 2.17713V5.73963C12.666 6.06738 12.4 6.33338 12.0723 6.33338Z" fill="#808080"/>
<path d="M10.4894 16.6248H7.32279C6.99506 16.6248 6.72907 16.3588 6.72907 16.031C6.72907 15.7033 6.99506 15.4373 7.32279 15.4373H10.4894C11.0349 15.4373 11.4788 14.9931 11.4788 14.4476V10.8851C11.4788 10.5574 11.7448 10.2914 12.0726 10.2914C12.4003 10.2914 12.6663 10.5574 12.6663 10.8851V14.4476C12.6663 15.6486 11.6903 16.6248 10.4894 16.6248Z" fill="#808080"/>
</svg>
