<svg width="13" height="17" viewBox="0 0 13 17" fill="none" xmlns="http://www.w3.org/2000/svg">
<path d="M0 0V17H9.62257L13 13.5207V0H0ZM0.966943 0.996094H12.0331V12.6061H8.73469V16.0039H0.966911L0.966943 0.996094ZM11.5534 13.6022L9.70163 15.5098V13.6022H11.5534Z" fill="#808080"/>
<path d="M4.43715 3.04359H8.56277V4.03968H4.43715V3.04359Z" fill="#808080"/>
<path d="M2.54624 5.52282H10.4537V6.51891H2.54624V5.52282Z" fill="#808080"/>
<path d="M2.54624 7.64782H10.4537V8.64391H2.54624V7.64782Z" fill="#808080"/>
<path d="M2.54624 9.77282H10.4537V10.7689H2.54624V9.77282Z" fill="#808080"/>
<path d="M2.54624 12.6061H3.5615V13.6022H2.54624V12.6061Z" fill="#808080"/>
<path d="M4.52847 12.6061H6.5V13.6022H4.52847V12.6061Z" fill="#808080"/>
</svg>
